<svg class="icon" style="width: 1em;height: 1em;vertical-align: middle;fill: currentColor;overflow: hidden;" viewBox="0 0 1024 1024" version="1.1" xmlns="http://www.w3.org/2000/svg" p-id="10627"><path d="M510.763 51.203c7.68 0 15.36 2.048 22.037 5.632L894.1 265.73a44.523 44.523 0 0 1 22.016 37.888v416.767c0 15.36-8.192 30.208-22.016 37.888L532.8 967.168a46.976 46.976 0 0 1-22.037 5.632c-7.68 0-15.36-2.048-22.038-5.632l-361.3-208.895a44.523 44.523 0 0 1-22.037-37.888V303.618c0-15.36 8.213-30.208 22.037-37.888L488.747 56.835a46.976 46.976 0 0 1 22.037-5.632m0-51.2c-16.405 0-32.81 4.096-47.659 12.8L101.804 221.186a96.15 96.15 0 0 0-47.659 81.92v416.767c0 33.792 17.92 65.024 47.659 81.92l361.3 208.895c14.848 8.192 31.253 12.8 47.659 12.8 16.405 0 32.789-4.096 47.658-12.8l361.3-208.895a96.15 96.15 0 0 0 47.66-81.92V303.618c0-33.792-17.942-65.024-47.66-81.92L557.91 12.803a90.688 90.688 0 0 0-47.146-12.8zM771.626 669.185a26.539 26.539 0 0 1-35.883 9.728L510.251 548.865 284.758 678.913c-12.31 7.168-28.693 2.56-35.37-9.728a25.557 25.557 0 0 1 9.749-35.328l226.004-130.56V243.714a26.24 26.24 0 0 1 26.134-26.112 26.24 26.24 0 0 1 26.133 26.112v259.583l224.98 130.048c11.777 7.168 16.406 23.04 9.217 35.84z" p-id="10628"></path></svg>