<svg class="icon" style="width: 1.0166015625em;height: 1em;vertical-align: middle;fill: currentColor;overflow: hidden;" viewBox="0 0 1041 1024" version="1.1" xmlns="http://www.w3.org/2000/svg" p-id="21941"><path d="M520.726 967.884L69.475 749.336C71 750.353 29.527 730.602 0 712.91c0 26.5 6.327 74.884 29.775 87.985l441.86 208.598c39.042 19.341 55.828 19.341 98.207 0l441.823-208.598c21.785-10.682 29.775-60.89 29.775-87.935-28.398 14.887-68.631 36.238-69.475 36.424zM29.775 582.348l441.86 208.61c39.042 19.33 55.828 19.33 98.207 0l441.823-208.61c21.785-10.67 29.775-60.865 29.775-87.886-28.398 14.888-68.631 36.202-69.475 36.388L520.726 749.336 69.475 530.837C71 531.842 29.527 512.141 0 494.45c0 26.425 6.327 74.834 29.775 87.898z m0-218.486l441.86 208.598c39.042 19.329 55.828 19.329 98.207 0l441.823-208.61c32.542-15.942 33.633-83.68 0-102.972L569.842 15.793c-34.737-21.612-59.165-20.495-98.207 0L29.775 260.828c-33.596 22.74-34.737 83.655 0 103.022zM520.689 57.428a4.032 4.032 0 0 1 1.24 0.695L972.04 312.34l-451.313 199.74L69.475 312.34z" fill="#231815" p-id="21942"></path></svg>